<svg width="65" height="65" viewBox="0 0 65 65" fill="none" xmlns="http://www.w3.org/2000/svg">
<path d="M47.5625 13.2754C47.5625 13.2754 28.6438 21.2411 28.2455 39.7615C28.2455 39.7615 28.0604 44.511 31.9978 44.1221C35.8261 43.744 34.2233 38.7815 34.2233 38.7815C34.2233 38.7815 30.5685 25.6388 47.5625 13.2754Z" stroke="#FF2A2A" stroke-miterlimit="10" stroke-linecap="round" stroke-linejoin="round"/>
<path d="M2.7207 36.2383H24.2713C24.2713 36.2383 21.6248 48.1134 31.6438 48.1134C41.6628 48.1134 37.9035 36.2383 37.9035 36.2383H62.2683M2.7207 52.5279C8.67533 52.5279 8.67533 55.1658 14.63 55.1658C20.5845 55.1658 20.5845 52.5279 26.539 52.5279C32.4937 52.5279 32.4937 55.1658 38.4483 55.1658C44.4033 55.1658 44.4033 52.5279 50.3583 52.5279C56.3133 52.5279 56.3133 55.1658 62.2683 55.1658M2.7207 58.2614C8.67533 58.2614 8.67533 60.8993 14.63 60.8993C20.5845 60.8993 20.5845 58.2614 26.539 58.2614C32.4937 58.2614 32.4937 60.8993 38.4483 60.8993C44.4033 60.8993 44.4033 58.2614 50.3583 58.2614C56.3133 58.2614 56.3133 60.8993 62.2683 60.8993" stroke="#FF2A2A" stroke-miterlimit="10" stroke-linecap="round" stroke-linejoin="round"/>
<path d="M14.7461 41.311H19.3668" stroke="#FF2A2A" stroke-miterlimit="10" stroke-linecap="round" stroke-linejoin="round"/>
<path d="M9.9668 41.311H10.7295" stroke="#FF2A2A" stroke-miterlimit="10" stroke-linecap="round" stroke-linejoin="round"/>
<path d="M2.7207 41.311H5.88295" stroke="#FF2A2A" stroke-miterlimit="10" stroke-linecap="round" stroke-linejoin="round"/>
<path d="M56.8906 41.311H62.2673" stroke="#FF2A2A" stroke-miterlimit="10" stroke-linecap="round" stroke-linejoin="round"/>
<path d="M51.332 41.311H52.2197" stroke="#FF2A2A" stroke-miterlimit="10" stroke-linecap="round" stroke-linejoin="round"/>
<path d="M43.916 41.311H46.5784" stroke="#FF2A2A" stroke-miterlimit="10" stroke-linecap="round" stroke-linejoin="round"/>
<path d="M50.2438 46.8901H41.8574" stroke="#FF2A2A" stroke-miterlimit="10" stroke-linecap="round" stroke-linejoin="round"/>
<path d="M55.0207 46.8901H54.2578" stroke="#FF2A2A" stroke-miterlimit="10" stroke-linecap="round" stroke-linejoin="round"/>
<path d="M62.2676 46.8901H59.1055" stroke="#FF2A2A" stroke-miterlimit="10" stroke-linecap="round" stroke-linejoin="round"/>
<path d="M8.09733 46.8901H2.7207" stroke="#FF2A2A" stroke-miterlimit="10" stroke-linecap="round" stroke-linejoin="round"/>
<path d="M13.6552 46.8901H12.7676" stroke="#FF2A2A" stroke-miterlimit="10" stroke-linecap="round" stroke-linejoin="round"/>
<path d="M22.0897 46.8901H18.4102" stroke="#FF2A2A" stroke-miterlimit="10" stroke-linecap="round" stroke-linejoin="round"/>
<path d="M22.0895 18.7536C22.785 18.7536 23.3488 18.1898 23.3488 17.4942C23.3488 16.7987 22.785 16.2349 22.0895 16.2349C21.3939 16.2349 20.8301 16.7987 20.8301 17.4942C20.8301 18.1898 21.3939 18.7536 22.0895 18.7536Z" fill="#FF2A2A"/>
<path d="M41.857 7.42305C42.5526 7.42305 43.1164 6.85921 43.1164 6.16367C43.1164 5.46814 42.5526 4.9043 41.857 4.9043C41.1615 4.9043 40.5977 5.46814 40.5977 6.16367C40.5977 6.85921 41.1615 7.42305 41.857 7.42305Z" fill="#FF2A2A"/>
</svg>
